During a heist in Russia, a professional thief finds himself dealing with serial killers, insane hostages, double-crossing psycho Russian hardmen and the real possibility of a horrible death.

David Heap...................Auctioneer
Alan Smyth...................Hugo
Stephen Dorff................Ritchie
Sean Pertwee.................Mr. Groznyi
Igor Chistol.................Thug 1
Greg Jeloudov................Thug 2
Jamie Foreman................Peter
Russell Smith................Yuri
Bronagh Gallagher............Sonya
Norma Sheahan................Helena
Gene Rooney..................Katerina
Jaime Murray.................Anna
Hugh O'Conor.................Dmitry
Geoff Bell...................Boris
Zak Maguire..................Alex

 
http://www.imdb.com/title/tt0790590/
 
http://www.youtube.com/watch?v=9KmNJZ64N4Q&feature=player_embedded

General
Complete name : Botched 2007 DVDRip Xvid BigPerm LKRG\Botched_LKRG.avi
Format : AVI
Format/Info : Audio Video Interleave
File size : 946 MiB
Duration : 1h 34mn
Overall bit rate : 1 398 Kbps

Video
ID : 0
Format : MPEG-4 Visual
Format profile : Advanced Simple@L5
Format settings, BVOP : Yes
Format settings, QPel : No
Format settings, GMC : No warppoints
Format settings, Matrix : Default (H.263)
Codec ID : XVID
Codec ID/Hint : XviD
Duration : 1h 34mn
Bit rate : 1 009 Kbps
Width : 720 pixels
Height : 404 pixels
Display aspect ratio : 16:9
Frame rate : 23.976 fps
Resolution : 8 bits
Colorimetry : 4:2:0
Scan type : Progressive
Bits/(Pixel*Frame) : 0.145
Stream size : 683 MiB (72%)
Writing library : XviD 1.2.1 (UTC 2008-12-04)

Audio
ID : 1
Format : AC-3
Format/Info : Audio Coding 3
Codec ID : 2000
Duration : 1h 34mn
Bit rate mode : Constant
Bit rate : 384 Kbps
Channel(s) : 6 channels
Channel positions : Front: L C R, Side: L R, LFE
Sampling rate : 48.0 KHz
Resolution : 16 bits
Video delay : 42ms
Stream size : 260 MiB (27%)
Alignment : Split accross interleaves
Interleave, duration : 500 ms (11.99 video frames)
Interleave, preload duration : 500 ms
Language : English

thanks to BigPerm :)
